<svg width="267" height="67" viewBox="0 0 267 67" fill="none" xmlns="http://www.w3.org/2000/svg">
<path d="M79.04 0V64.88H81.2V0H79.04Z" fill="#FFA500"/>
<path d="M0 7.28002C2.1052 8.56882 4.27656 9.74963 6.4 11.008C7.02944 11.3816 8.4244 11.8632 8.79776 12.4968C9.07032 12.96 8.88 13.9528 8.88 14.48V19.36V34.72V39.2C8.88 39.7784 8.72496 40.6224 8.94144 41.1648C9.13336 41.6456 9.744 41.8728 10.16 42.1136C11.1477 42.6872 12.1354 43.2608 13.12 43.8392C17.096 46.1744 21.0496 48.6336 25.12 50.8V43.04C25.12 42.408 25.4104 40.7816 24.992 40.2888C24.6376 39.8712 23.9072 39.6224 23.44 39.344C22.2224 38.6184 20.9896 37.9176 19.76 37.212C19.2704 36.9312 18.1 36.5032 17.9456 35.9168C17.7704 35.252 17.92 34.3664 17.92 33.68V28.88V13.52V9.36002C17.92 8.76962 18.0456 8.01523 17.8944 7.44323C17.784 7.02403 17.2232 6.81282 16.88 6.61762C15.9432 6.08322 15.008 5.54162 14.08 4.99202C12.939 4.31522 11.781 3.66802 10.64 2.99202C10.1918 2.72642 9.56304 2.18563 9.04 2.12403C8.3704 2.04483 7.20696 3.02802 6.64 3.36082C5.09672 4.26723 3.53768 5.14803 2 6.06403C1.34584 6.45363 0.57496 6.78082 0 7.28002Z" fill="#FFA500"/>
<path d="M49.92 7.36C52.1312 8.3128 54.2536 9.84881 56.32 11.088C56.9408 11.46 58.2816 11.9264 58.6376 12.568C58.8784 13.0024 58.72 13.8344 58.72 14.32V18.72V34.8V39.68C58.72 40.1704 58.8952 41.0912 58.592 41.5032C58.308 41.888 57.6824 42.1104 57.28 42.352C56.2448 42.9728 55.1952 43.5712 54.16 44.192C50.4536 46.4144 46.5672 48.4208 42.96 50.8V30.8V24.72C42.96 23.8808 43.1648 22.732 42.9256 21.9272C42.7536 21.352 41.5304 20.8992 41.04 20.608C39.364 19.6144 37.6712 18.6496 36 17.648C35.5216 17.3608 34.5744 16.5464 34 16.6288C33.1328 16.7536 32.0288 17.7112 31.28 18.16C29.2656 19.368 27.1584 20.464 25.2 21.76C26.9944 23.3192 29.556 24.364 31.6 25.584C32.2224 25.956 33.5528 26.4168 33.9176 27.0552C34.3024 27.7288 34 29.308 34 30.08V37.92V66.56C36.832 65.3392 39.4904 63.3432 42.16 61.7936C47.8304 58.5032 53.4872 55.1784 59.12 51.824C61.1656 50.6056 63.2208 49.4008 65.28 48.2064C65.8488 47.876 67.2968 47.3368 67.552 46.712C67.824 46.044 67.6 44.8792 67.6 44.16V38.08V17.12V10.16C67.6 9.3728 67.8632 8.01999 67.552 7.29679C67.404 6.95439 66.8616 6.77039 66.56 6.59199C65.6816 6.07119 64.8 5.556 63.92 5.0392C62.7184 4.3336 61.5248 3.61359 60.32 2.91359C59.9072 2.67439 59.288 2.1328 58.8 2.12C58.1232 2.1024 57.0528 3.03279 56.48 3.37599C54.9928 4.26639 53.4872 5.12559 52 6.01599C51.3304 6.41679 50.4288 6.7616 49.92 7.36Z" fill="#858585"/>
<path d="M67.6 7.27995V46.8H67.68V18.8V10.72C67.68 9.74315 67.9768 8.17755 67.6 7.27995Z" fill="#C4C4C4"/>
<path d="M183.2 20V20.08H195.76V22.72L195.84 20.72L195.712 20.0824L194.8 20H192.4H183.2Z" fill="#C4C4C4"/>
<path d="M89.28 20.08V20.16H92.72C91.8216 19.7832 90.2576 20.08 89.28 20.08ZM103.52 20.08V20.16H106.88C106.001 19.7912 104.477 20.08 103.52 20.08Z" fill="#FFD8B7"/>
<path d="M182.48 20.08V20.16H182.72L182.48 20.08Z" fill="#C4C4C4"/>
<path d="M179.28 32.72V35.44H188.8C190.59 35.44 192.531 35.6624 194.24 35.0216C196.997 33.988 197.671 29.672 195.673 27.6032C194.724 26.6208 193.451 26.4016 192.16 26.3128C190.142 26.1744 188.105 26.24 186.08 26.24C185.156 26.24 183.865 26.4744 183.04 25.9824C181.506 25.0664 182.358 22.9488 183.92 22.7432C185.11 22.5864 186.399 22.72 187.6 22.72C190.32 22.72 193.047 22.7984 195.76 22.8V20.08H186.4C184.759 20.08 182.919 19.8392 181.36 20.4488C178.734 21.4768 177.926 25.6264 179.944 27.6456C181.222 28.924 182.954 28.96 184.64 28.96H189.44C190.426 28.96 191.768 28.7312 192.64 29.2904C194.178 30.2776 193.27 32.4896 191.68 32.6968C190.335 32.872 188.877 32.72 187.52 32.72H179.28Z" fill="#858585"/>
<path d="M213.2 20.08V20.16H216.24C215.437 19.8232 214.073 20.08 213.2 20.08ZM263.52 20.08V20.16H266.56C265.757 19.8232 264.393 20.08 263.52 20.08Z" fill="#FFD8B7"/>
<path d="M89.28 20.16V35.36H92.64V24.4L102.24 34.16L103.44 35.2776L105.52 35.36L106.752 35.2776L106.88 34.32V31.52V20.16H103.52V31.04C102.584 30.3808 101.849 29.3688 101.04 28.56C99.2128 26.7328 97.4256 24.8656 95.6 23.04L93.68 21.12C93.38 20.82 93.0496 20.3592 92.64 20.208C91.736 19.8752 90.244 20.16 89.28 20.16Z" fill="#858585"/>
<path d="M103.44 20.16V27.36L103.36 31.04C103.789 30.6648 103.52 29.0424 103.52 28.48V22.72C103.52 21.9744 103.729 20.848 103.44 20.16Z" fill="#C4C4C4"/>
<path d="M109.52 20.16V22.56H112.64C112.64 22.044 112.882 20.6984 112.558 20.288C112.398 20.0864 111.984 20.16 111.76 20.16H109.52Z" fill="#858585"/>
<path d="M120.32 20.16V20.24H120.96L120.32 20.16Z" fill="#C4C4C4"/>
<path d="M117.36 24.4H114.24V26.8H117.36V33.12C117.36 33.5504 117.132 34.996 117.488 35.2776C117.684 35.4328 118.087 35.36 118.32 35.36H120.4V26.8H124.96V24.4H120.4C120.446 22.1872 122.434 22.64 124.08 22.64C124.407 22.64 125.294 22.7952 125.518 22.512C125.733 22.24 125.6 21.5304 125.6 21.2C125.6 20.9536 125.646 20.6504 125.574 20.412C125.479 20.0896 125.063 20.16 124.8 20.16H122.32C120.405 20.16 118.067 20.1952 117.512 22.48C117.362 23.1 117.36 23.7656 117.36 24.4Z" fill="#858585"/>
<path d="M213.12 20.16V35.36H213.2V24.64V21.6L213.12 20.16Z" fill="#C4C4C4"/>
<path d="M213.2 20.16V35.36H215.28C215.513 35.36 215.916 35.4328 216.112 35.2776C216.468 34.996 216.24 33.5504 216.24 33.12V26.8H220.8C221.412 26.8 222.204 26.664 222.717 27.0736C223.386 27.6088 223.2 28.6032 223.2 29.36V35.36H226.24V28.64C226.24 27.3776 226.29 26.0872 225.266 25.1576C224.442 24.4088 223.204 24.4 222.16 24.4H216.24V20.16H213.2ZM263.52 20.16V35.36H266.56V20.16H263.52Z" fill="#858585"/>
<path d="M109.44 20.24V22.56H109.52L109.44 20.24Z" fill="#FFD8B7"/>
<path d="M129.12 20.96V21.04H132.16C131.357 20.7032 129.993 20.96 129.12 20.96Z" fill="#FFD8B7"/>
<path d="M129.04 21.04V24.4H129.12C129.12 23.4432 129.409 21.9192 129.04 21.04Z" fill="#C4C4C4"/>
<path d="M129.12 21.04V24.4H125.92V26.8H129.12V31.28C129.12 32.4688 129.14 33.668 130.087 34.5432C130.857 35.2544 132.042 35.36 133.04 35.36H137.28V32.88H134.08C133.61 32.88 133.047 32.968 132.647 32.668C132.092 32.2504 132.16 31.576 132.16 30.96V26.8H136.72V24.4H132.16V21.04H129.12Z" fill="#858585"/>
<path d="M109.52 22.56V22.64H112.64C111.818 22.2952 110.414 22.56 109.52 22.56Z" fill="#FFD8B7"/>
<path d="M183.76 22.72V22.8H195.04C194.162 22.4312 192.635 22.72 191.68 22.72H183.76Z" fill="#C4C4C4"/>
<path d="M117.36 22.96V23.36H117.44L117.36 22.96Z" fill="#C4C4C4"/>
<path d="M178.88 23.6V23.84H178.96L178.88 23.6Z" fill="#C4C4C4"/>
<path d="M120.4 23.84V24.4H120.48L120.4 23.84ZM182.24 24.08V24.96H182.32L182.24 24.08Z" fill="#C4C4C4"/>
<path d="M167.76 24.24V24.32H174L172.08 24.24H167.76Z" fill="#C4C4C4"/>
<path d="M203.44 24.24V24.32H203.68L203.44 24.24Z" fill="#FFD8B7"/>
<path d="M203.68 24.24V24.32H211.28V26.72H211.36V24.24H203.68Z" fill="#C4C4C4"/>
<path d="M233.36 24.24V24.32H233.6L233.36 24.24Z" fill="#FFD8B7"/>
<path d="M233.6 24.24V24.32H238.64L237.04 24.24H233.6Z" fill="#C4C4C4"/>
<path d="M251.04 24.24V24.32H256.08L254.48 24.24H251.04Z" fill="#C4C4C4"/>
<path d="M256.08 24.24V24.32H256.32L256.08 24.24Z" fill="#FFD8B7"/>
<path d="M109.52 24.32V24.4H112.56C111.757 24.0632 110.393 24.32 109.52 24.32ZM114.24 24.32V24.4H117.36C116.538 24.0552 115.134 24.32 114.24 24.32ZM120.48 24.32V24.4H124.96L123.52 24.32H120.48ZM125.92 24.32V24.4H129.04C128.218 24.0552 126.814 24.32 125.92 24.32Z" fill="#FFD8B7"/>
<path d="M132.24 24.32V24.4H136.72L135.28 24.32H132.24ZM138.96 24.32V24.4H142C141.197 24.0632 139.833 24.32 138.96 24.32ZM148.96 24.32V24.4H152.16C151.319 24.0472 149.874 24.32 148.96 24.32Z" fill="#FFD8B7"/>
<path d="M166.88 24.32V24.4H167.2L166.88 24.32Z" fill="#C4C4C4"/>
<path d="M176.88 35.44V33.04C174.074 33.04 171.198 33.2248 168.4 33.0328C167.053 32.9408 165.997 32.408 165.6 31.04H172.72C173.91 31.04 175.415 31.0456 176.4 30.2776C178.112 28.9424 177.737 25.6904 175.84 24.7416C174.773 24.208 173.556 24.32 172.4 24.32C170.474 24.32 168.374 24.0848 166.48 24.4648C165.386 24.684 164.206 25.2136 163.477 26.0808C161.562 28.3592 161.885 32.7288 164.4 34.42C165.937 35.4536 167.825 35.44 169.6 35.44H176.88Z" fill="#FFA500"/>
<path d="M174.48 24.32V24.4H174.72L174.48 24.32Z" fill="#C4C4C4"/>
<path d="M202.8 24.32V24.4H203.04L202.8 24.32Z" fill="#C4C4C4"/>
<path d="M211.52 35.44V33.04H205.76C204.722 33.04 203.576 33.148 202.64 32.6128C200.813 31.5688 200.88 28.0536 202.72 27.0656C203.624 26.5808 204.69 26.72 205.68 26.72H211.28V24.32H205.28C203.617 24.32 201.961 24.2896 200.48 25.1808C197.098 27.2168 197.493 33.0936 200.96 34.7792C202.403 35.4808 204.036 35.44 205.6 35.44H211.52Z" fill="#858585"/>
<path d="M216.24 24.32V24.4H222.8L220.8 24.32H216.24Z" fill="#FFD8B7"/>
<path d="M232.72 24.32V24.4H232.96L232.72 24.32Z" fill="#C4C4C4"/>
<path d="M232.96 24.3544C231.644 24.5424 230.295 24.9936 229.374 26.0008C227.629 27.9104 227.57 31.9664 229.454 33.8168C231.225 35.5568 233.788 35.44 236.08 35.44C237.202 35.44 238.327 35.4872 239.44 35.3256C240.733 35.1384 242.07 34.6248 242.934 33.6C244.675 31.5344 244.505 27.6224 242.56 25.7632C240.778 24.0592 238.185 24.32 235.92 24.32C234.953 24.32 233.918 24.2168 232.96 24.3544Z" fill="#858585"/>
<path d="M239.2 24.32V24.4H239.52L239.2 24.32Z" fill="#C4C4C4"/>
<path d="M250.24 24.32V24.4H250.48L250.24 24.32Z" fill="#C4C4C4"/>
<path d="M250.48 24.3544C249.062 24.5576 247.7 25.04 246.744 26.16C245.072 28.1184 245.133 32.12 247.043 33.9064C248.806 35.5544 251.279 35.44 253.52 35.44C254.811 35.44 256.082 35.4712 257.36 35.2568C261.495 34.5648 263.154 28.7784 260.159 25.8432C258.374 24.0936 255.814 24.32 253.52 24.32C252.527 24.32 251.464 24.2136 250.48 24.3544Z" fill="#858585"/>
<path d="M256.72 24.32V24.4H256.96L256.72 24.32Z" fill="#C4C4C4"/>
<path d="M109.52 24.4V32.56V34.56L109.648 35.2776L110.48 35.36H112.56V24.4H109.52Z" fill="#858585"/>
<path d="M112.56 24.4V35.36H112.64V27.68C112.64 26.7456 112.921 25.2592 112.56 24.4ZM114.16 24.4V26.8H114.24L114.16 24.4ZM124.96 24.4V26.8H125.04L124.96 24.4ZM138.88 24.4V32.32H138.96V26.8L138.88 24.4Z" fill="#C4C4C4"/>
<path d="M138.96 24.4V31.12C138.96 32.364 138.921 33.624 139.923 34.5448C140.627 35.192 141.516 35.1976 142.4 35.3136C144.574 35.5992 146.926 35.36 149.12 35.36C149.12 36.0384 149.214 36.92 148.632 37.4064C148.105 37.8456 147.198 37.68 146.56 37.68H141.36V40.08H147.6C148.7 40.08 149.927 40.204 150.88 39.536C152.282 38.5536 152.16 36.7144 152.16 35.2V24.4H148.96V32.88H144.32C143.717 32.88 142.902 33.0312 142.408 32.6088C141.793 32.0816 142 31.044 142 30.32V24.4H138.96Z" fill="#858585"/>
<path d="M223.36 24.4V24.48H223.6L223.36 24.4Z" fill="#C4C4C4"/>
<path d="M249.76 24.4V24.48H250L249.76 24.4ZM257.2 24.4V24.48H257.44L257.2 24.4Z" fill="#C4C4C4"/>
<path d="M92.64 24.48V35.28H92.72V27.76C92.72 26.8256 93.0008 25.3392 92.64 24.48Z" fill="#FFD8B7"/>
<path d="M178.88 25.2V25.44H178.96L178.88 25.2Z" fill="#C4C4C4"/>
<path d="M183.52 26.16V26.24H183.76L183.52 26.16Z" fill="#C4C4C4"/>
<path d="M191.84 26.24V26.32H192.56L191.84 26.24Z" fill="#C4C4C4"/>
<path d="M165.68 28.56H169.12H171.44C172.134 28.56 173.29 28.7792 173.917 28.4544C174.485 28.16 174.549 27.2176 173.995 26.8752C173.418 26.5168 172.335 26.72 171.68 26.72C169.865 26.72 166.126 26.06 165.68 28.56Z" fill="white"/>
<path d="M177.36 26.72V26.96H177.44L177.36 26.72ZM203.52 26.72V26.8H203.84L203.52 26.72Z" fill="#C4C4C4"/>
<path d="M233.44 26.72V26.8H233.76L233.44 26.72Z" fill="#C4C4C4"/>
<path d="M233.92 26.7536C233.2 26.8496 232.542 26.9736 232.015 27.5272C230.978 28.6168 230.979 31.368 232.167 32.3576C233.347 33.34 235.375 32.96 236.8 32.96C237.424 32.96 238.103 33.0352 238.72 32.9344C241.017 32.5584 241.724 28.9184 240.066 27.4096C238.997 26.436 237.172 26.72 235.84 26.72C235.206 26.72 234.549 26.6704 233.92 26.7536Z" fill="white"/>
<path d="M238.48 26.72V26.8H238.8L238.48 26.72ZM250.88 26.72V26.8H251.2L250.88 26.72Z" fill="#C4C4C4"/>
<path d="M251.36 26.7544C250.675 26.8472 249.969 27.0064 249.482 27.544C248.45 28.6864 248.508 31.3552 249.683 32.3736C250.359 32.96 251.238 32.96 252.08 32.96C253.404 32.96 254.849 33.1232 256.16 32.936C258.477 32.6048 259.265 28.9416 257.576 27.4144C256.483 26.4264 254.632 26.72 253.28 26.72C252.647 26.72 251.988 26.6688 251.36 26.7544Z" fill="white"/>
<path d="M255.92 26.72V26.8H256.32L255.92 26.72Z" fill="#C4C4C4"/>
<path d="M114.24 26.7999V26.8799H117.36C116.538 26.5351 115.134 26.7999 114.24 26.7999Z" fill="#FFD8B7"/>
<path d="M120.4 26.8V35.36H120.48V29.44L120.4 26.8Z" fill="#C4C4C4"/>
<path d="M120.48 26.7999V26.8799H124.96L123.52 26.7999H120.48ZM125.92 26.7999V26.8799H129.04C128.218 26.5351 126.814 26.7999 125.92 26.7999Z" fill="#FFD8B7"/>
<path d="M129.04 26.8V32.08H129.12V28.48L129.04 26.8Z" fill="#C4C4C4"/>
<path d="M132.24 26.8V26.88H136.72L135.28 26.8H132.24Z" fill="#FFD8B7"/>
<path d="M216.24 26.8V26.88H222L220.16 26.8H216.24Z" fill="#FFD8B7"/>
<path d="M222 26.8V26.88H222.32L222 26.8Z" fill="#C4C4C4"/>
<path d="M177.44 27.28V28.08H177.52L177.44 27.28Z" fill="#C4C4C4"/>
<path d="M226.24 27.44V35.36H226.32V29.84L226.24 27.44Z" fill="#C4C4C4"/>
<path d="M154.16 27.92V30.32H160.64V27.92H154.16Z" fill="#858585"/>
<path d="M160.64 27.92V30.32H154.16V30.4H158.88C159.287 30.4 160.262 30.5792 160.592 30.3176C160.926 30.0536 160.794 28.2856 160.64 27.92Z" fill="#C4C4C4"/>
<path d="M198.24 28.48V28.72H198.32L198.24 28.48Z" fill="#C4C4C4"/>
<path d="M162.32 28.64V28.88H162.4L162.32 28.64Z" fill="#C4C4C4"/>
<path d="M244 28.8V29.04H244.08L244 28.8Z" fill="#C4C4C4"/>
<path d="M182.64 28.88V28.96H182.88L182.64 28.88ZM245.6 28.88V29.2H245.68L245.6 28.88Z" fill="#C4C4C4"/>
<path d="M183.36 28.96V29.04H191.84L189.28 28.96H183.36Z" fill="#C4C4C4"/>
<path d="M258.32 28.96V29.2H258.4L258.32 28.96ZM261.52 28.96V29.28H261.6L261.52 28.96ZM198.16 29.04V29.68H198.24L198.16 29.04ZM201.36 29.04V29.44H201.44L201.36 29.04ZM228.08 29.04V29.6H228.16L228.08 29.04ZM231.28 29.04V29.44H231.36L231.28 29.04Z" fill="#C4C4C4"/>
<path d="M162.24 29.2V29.44H162.32L162.24 29.2Z" fill="#FFD8B7"/>
<path d="M162.24 29.44V30.32H162.32L162.24 29.44Z" fill="#C4C4C4"/>
<path d="M240.88 29.68V30.08H240.96L240.88 29.68Z" fill="#C4C4C4"/>
<path d="M244.08 29.68V30.08H244.16L244.08 29.68Z" fill="#FFD8B7"/>
<path d="M196.72 30.08V30.56H196.8L196.72 30.08ZM198.16 30.08V30.72H198.24L198.16 30.08Z" fill="#C4C4C4"/>
<path d="M228.08 30.16V30.72H228.16L228.08 30.16Z" fill="#C4C4C4"/>
<path d="M201.36 30.24V30.72H201.44L201.36 30.24Z" fill="#C4C4C4"/>
<path d="M162.24 30.32V30.56H162.32L162.24 30.32Z" fill="#FFD8B7"/>
<path d="M231.28 30.32V30.72H231.36L231.28 30.32Z" fill="#C4C4C4"/>
<path d="M258.32 30.48V30.72H258.4L258.32 30.48ZM261.52 30.48V30.8H261.6L261.52 30.48Z" fill="#C4C4C4"/>
<path d="M245.6 30.64V30.88H245.68L245.6 30.64ZM193.36 30.72V30.96H193.44L193.36 30.72Z" fill="#C4C4C4"/>
<path d="M244 30.72V30.96H244.08L244 30.72Z" fill="#C4C4C4"/>
<path d="M162.32 30.88V31.12H162.4L162.32 30.88ZM174.64 30.88V30.96H174.88L174.64 30.88Z" fill="#C4C4C4"/>
<path d="M173.68 30.96V31.04H174.24L173.68 30.96Z" fill="#C4C4C4"/>
<path d="M196.72 31.12V31.6H196.8L196.72 31.12Z" fill="#C4C4C4"/>
<path d="M132.16 31.84V32.08H132.24L132.16 31.84Z" fill="#C4C4C4"/>
<path d="M179.2 32.64V35.44H179.28V32.72H188.96C188.177 32.3912 186.85 32.64 186 32.64H179.2Z" fill="#C4C4C4"/>
<path d="M188.96 32.64V32.72H191.52L188.96 32.64Z" fill="#FFD8B7"/>
<path d="M191.52 32.64V32.72H191.84L191.52 32.64Z" fill="#C4C4C4"/>
<path d="M137.28 32.88V35.36H137.36L137.28 32.88Z" fill="#C4C4C4"/>
<path d="M168.08 32.96V33.04H176.88V35.44H176.96V32.96H168.08ZM203.92 32.96V33.04H211.52L209.2 32.96H203.92ZM233.84 32.96V33.04H238.4L236.96 32.96H233.84ZM251.36 32.96V33.04H255.84L254.4 32.96H251.36ZM211.52 33.04V35.44H211.6L211.52 33.04Z" fill="#C4C4C4"/>
<path d="M131.44 35.2V35.28H131.68L131.44 35.2Z" fill="#C4C4C4"/>
<path d="M202.16 35.2V35.28H202.4L202.16 35.2ZM232.08 35.2V35.28H232.32L232.08 35.2Z" fill="#C4C4C4"/>
<path d="M132 35.28V35.36H132.24L132 35.28Z" fill="#C4C4C4"/>
<path d="M141.92 35.28V35.36H142.48L141.92 35.28ZM166.72 35.28V35.36H166.96L166.72 35.28Z" fill="#C4C4C4"/>
<path d="M202.64 35.28V35.36H202.88L202.64 35.28Z" fill="#C4C4C4"/>
<path d="M232.56 35.28V35.36H232.8L232.56 35.28Z" fill="#C4C4C4"/>
<path d="M256.88 35.28V35.36H257.12L256.88 35.28Z" fill="#C4C4C4"/>
<path d="M149.04 35.36V36.56H149.12L149.04 35.36Z" fill="#C4C4C4"/>
<path d="M167.36 35.36V35.44H167.6L167.36 35.36ZM192.56 35.36V35.44H192.88L192.56 35.36Z" fill="#C4C4C4"/>
<path d="M203.2 35.36V35.44H203.52L203.2 35.36Z" fill="#C4C4C4"/>
<path d="M233.12 35.36V35.44H233.44L233.12 35.36ZM238.72 35.36V35.44H239.04L238.72 35.36Z" fill="#C4C4C4"/>
<path d="M250.64 35.36V35.44H250.96L250.64 35.36ZM256.24 35.36V35.44H256.56L256.24 35.36Z" fill="#C4C4C4"/>
<path d="M152.08 36.96V37.44H152.16L152.08 36.96Z" fill="#C4C4C4"/>
<path d="M149.44 40V40.08H149.68L149.44 40Z" fill="#C4C4C4"/>
<path d="M141.36 40.08V40.16H149.04L146.64 40.08H141.36ZM25.12 40.32V50.8H25.2V43.44C25.2 42.5472 25.4648 41.1416 25.12 40.32ZM8.96002 41.2V41.44H9.04002L8.96002 41.2Z" fill="#FFD8B7"/>
<path d="M8.88 51.84V51.92H9.12V51.84H8.88Z" fill="#FFD8B7"/>
<path d="M79.04 64.88V64.96H81.2L79.04 64.88Z" fill="#C4C4C4"/>
</svg>
