<svg width="3332" height="832" viewBox="0 0 3332 832" fill="none" xmlns="http://www.w3.org/2000/svg">
<path d="M988 0V811H1015V0H988Z" fill="#FFA500"/>
<path d="M0 91.0001C26.315 107.11 53.457 121.87 80 137.6C87.868 142.27 105.305 148.29 109.972 156.21C113.379 162 111 174.41 111 181V242V434V490C111 497.23 109.062 507.78 111.768 514.56C114.167 520.57 121.8 523.41 127 526.42C139.346 533.59 151.692 540.76 164 547.99C213.7 577.18 263.12 607.92 314 635V538C314 530.1 317.63 509.77 312.4 503.61C307.97 498.39 298.84 495.28 293 491.8C277.78 482.73 262.37 473.97 247 465.15C240.88 461.64 226.25 456.29 224.32 448.96C222.13 440.65 224 429.58 224 421V361V169V117C224 109.62 225.57 100.19 223.68 93.0402C222.3 87.8002 215.29 85.1601 211 82.7201C199.29 76.0401 187.6 69.27 176 62.4C161.737 53.94 147.262 45.85 133 37.4C127.398 34.08 119.538 27.3202 113 26.5502C104.63 25.5602 90.087 37.8501 83 42.0101C63.709 53.3401 44.221 64.3502 25 75.8002C16.823 80.6702 7.187 84.7601 0 91.0001Z" fill="#FFA500"/>
<path d="M624 91.9999C651.64 103.91 678.17 123.11 704 138.6C711.76 143.25 728.52 149.08 732.97 157.1C735.98 162.53 734 172.93 734 179V234V435V496C734 502.13 736.19 513.64 732.4 518.79C728.85 523.6 721.03 526.38 716 529.4C703.06 537.16 689.94 544.64 677 552.4C630.67 580.18 582.09 605.26 537 635V385V309C537 298.51 539.56 284.15 536.57 274.09C534.42 266.9 519.13 261.24 513 257.6C492.05 245.18 470.89 233.12 450 220.6C444.02 217.01 432.18 206.83 425 207.86C414.16 209.42 400.36 221.39 391 227C365.82 242.1 339.48 255.8 315 272C337.43 291.49 369.45 304.55 395 319.8C402.78 324.45 419.41 330.21 423.97 338.19C428.78 346.61 425 366.35 425 376V474V832C460.4 816.74 493.63 791.79 527 772.42C597.88 731.29 668.59 689.73 739 647.8C764.57 632.57 790.26 617.51 816 602.58C823.11 598.45 841.21 591.71 844.4 583.9C847.8 575.55 845 560.99 845 552V476V214V127C845 117.16 848.29 100.25 844.4 91.2099C842.55 86.9299 835.77 84.6298 832 82.3998C821.02 75.8898 810 69.4499 799 62.9899C783.98 54.1699 769.06 45.1698 754 36.4198C748.84 33.4298 741.1 26.6599 735 26.4999C726.54 26.2799 713.16 37.9099 706 42.1999C687.41 53.3299 668.59 64.0699 650 75.1999C641.63 80.2099 630.36 84.5199 624 91.9999Z" fill="#858585"/>
<path d="M845 91V585H846V235V134C846 121.79 849.71 102.22 845 91Z" fill="#C4C4C4"/>
<path d="M2290 250V251H2447V284L2448 259L2446.4 251.03L2435 250H2405H2290Z" fill="#C4C4C4"/>
<path d="M2241 409V443H2360C2382.38 443 2406.64 445.78 2428 437.77C2462.46 424.85 2470.89 370.9 2445.91 345.04C2434.05 332.76 2418.14 330.02 2402 328.91C2376.78 327.18 2351.31 328 2326 328C2314.45 328 2298.31 330.93 2288 324.78C2268.82 313.33 2279.47 286.86 2299 284.29C2313.88 282.33 2329.99 284 2345 284C2379 284 2413.09 284.98 2447 285V251H2330C2309.49 251 2286.49 247.99 2267 255.61C2234.18 268.46 2224.08 320.33 2249.3 345.57C2265.27 361.55 2286.93 362 2308 362H2368C2380.32 362 2397.1 359.14 2408 366.13C2427.22 378.47 2415.88 406.12 2396 408.71C2379.19 410.9 2360.96 409 2344 409H2241Z" fill="#858585"/>
<path d="M1116 252V442H1158V305L1278 427L1293 440.97L1319 442L1334.4 440.97L1336 429V394V252H1294V388C1282.3 379.76 1273.11 367.11 1263 357C1240.16 334.16 1217.82 310.82 1195 288L1171 264C1167.25 260.25 1163.12 254.49 1158 252.6C1146.7 248.44 1128.05 252 1116 252Z" fill="#858585"/>
<path d="M1293 252V342L1292 388C1297.36 383.31 1294 363.03 1294 356V284C1294 274.68 1296.61 260.6 1293 252Z" fill="#C4C4C4"/>
<path d="M1369 252V282H1408C1408 275.55 1411.03 258.73 1406.97 253.6C1404.98 251.08 1399.8 252 1397 252H1369Z" fill="#858585"/>
<path d="M1467 305H1428V335H1467V414C1467 419.38 1464.15 437.45 1468.6 440.97C1471.05 442.91 1476.09 442 1479 442H1505V335H1562V305H1505C1505.57 277.34 1530.42 283 1551 283C1555.09 283 1566.17 284.94 1568.97 281.4C1571.66 278 1570 269.13 1570 265C1570 261.92 1570.57 258.13 1569.68 255.15C1568.49 251.12 1563.29 252 1560 252H1529C1505.06 252 1475.84 252.44 1468.9 281C1467.02 288.75 1467 297.07 1467 305Z" fill="#858585"/>
<path d="M2664 252V442H2665V308V270L2664 252Z" fill="#C4C4C4"/>
<path d="M2665 252V442H2691C2693.91 442 2698.95 442.91 2701.4 440.97C2705.85 437.45 2703 419.38 2703 414V335H2760C2767.65 335 2777.55 333.3 2783.96 338.42C2792.32 345.11 2790 357.54 2790 367V442H2828V358C2828 342.22 2828.62 326.09 2815.83 314.47C2805.53 305.11 2790.05 305 2777 305H2703V252H2665ZM3294 252V442H3332V252H3294Z" fill="#858585"/>
<path d="M1368 253V282H1369L1368 253Z" fill="#FFD8B7"/>
<path d="M1613 263V305H1614C1614 293.04 1617.61 273.99 1613 263Z" fill="#C4C4C4"/>
<path d="M1614 263V305H1574V335H1614V391C1614 405.86 1614.25 420.85 1626.09 431.79C1635.71 440.68 1650.52 442 1663 442H1716V411H1676C1670.13 411 1663.09 412.1 1658.09 408.35C1651.15 403.13 1652 394.7 1652 387V335H1709V305H1652V263H1614Z" fill="#858585"/>
<path d="M1369 282V283H1408C1397.73 278.69 1380.17 282 1369 282Z" fill="#FFD8B7"/>
<path d="M2297 284V285H2438C2427.02 280.39 2407.94 284 2396 284H2297Z" fill="#C4C4C4"/>
<path d="M1467 287V292H1468L1467 287Z" fill="#C4C4C4"/>
<path d="M2236 295V298H2237L2236 295Z" fill="#C4C4C4"/>
<path d="M1505 298V305H1506L1505 298ZM2278 301V312H2279L2278 301Z" fill="#C4C4C4"/>
<path d="M2097 303V304H2175L2151 303H2097Z" fill="#C4C4C4"/>
<path d="M2543 303V304H2546L2543 303Z" fill="#FFD8B7"/>
<path d="M2546 303V304H2641V334H2642V303H2546Z" fill="#C4C4C4"/>
<path d="M2917 303V304H2920L2917 303Z" fill="#FFD8B7"/>
<path d="M2920 303V304H2983L2963 303H2920Z" fill="#C4C4C4"/>
<path d="M3138 303V304H3201L3181 303H3138Z" fill="#C4C4C4"/>
<path d="M3201 303V304H3204L3201 303Z" fill="#FFD8B7"/>
<path d="M1369 304V305H1407C1396.96 300.79 1379.91 304 1369 304ZM1428 304V305H1467C1456.73 300.69 1439.17 304 1428 304ZM1506 304V305H1562L1544 304H1506ZM1574 304V305H1613C1602.73 300.69 1585.17 304 1574 304Z" fill="#FFD8B7"/>
<path d="M1653 304V305H1709L1691 304H1653ZM1737 304V305H1775C1764.96 300.79 1747.91 304 1737 304ZM1862 304V305H1902C1891.49 300.59 1873.43 304 1862 304Z" fill="#FFD8B7"/>
<path d="M2086 304V305H2090L2086 304Z" fill="#C4C4C4"/>
<path d="M2211 443V413C2175.93 413 2139.98 415.31 2105 412.91C2088.16 411.76 2074.96 405.1 2070 388H2159C2173.88 388 2192.69 388.07 2205 378.47C2226.4 361.78 2221.71 321.13 2198 309.27C2184.66 302.6 2169.45 304 2155 304C2130.93 304 2104.68 301.06 2081 305.81C2067.33 308.55 2052.58 315.17 2043.46 326.01C2019.53 354.49 2023.56 409.11 2055 430.25C2074.21 443.17 2097.81 443 2120 443H2211Z" fill="#FFA500"/>
<path d="M2181 304V305H2184L2181 304Z" fill="#C4C4C4"/>
<path d="M2535 304V305H2538L2535 304Z" fill="#C4C4C4"/>
<path d="M2644 443V413H2572C2559.03 413 2544.7 414.35 2533 407.66C2510.16 394.61 2511 350.67 2534 338.32C2545.3 332.26 2558.63 334 2571 334H2641V304H2566C2545.21 304 2524.51 303.62 2506 314.76C2463.72 340.21 2468.66 413.67 2512 434.74C2530.04 443.51 2550.45 443 2570 443H2644Z" fill="#858585"/>
<path d="M2703 304V305H2785L2760 304H2703Z" fill="#FFD8B7"/>
<path d="M2909 304V305H2912L2909 304Z" fill="#C4C4C4"/>
<path d="M2912 304.43C2895.55 306.78 2878.69 312.42 2867.17 325.01C2845.36 348.88 2844.62 399.58 2868.17 422.71C2890.31 444.46 2922.35 443 2951 443C2965.02 443 2979.09 443.59 2993 441.57C3009.16 439.23 3025.87 432.81 3036.67 420C3058.44 394.18 3056.31 345.28 3032 322.04C3009.72 300.74 2977.31 304 2949 304C2936.91 304 2923.98 302.71 2912 304.43Z" fill="#858585"/>
<path d="M2990 304V305H2994L2990 304Z" fill="#C4C4C4"/>
<path d="M3128 304V305H3131L3128 304Z" fill="#C4C4C4"/>
<path d="M3131 304.43C3113.27 306.97 3096.25 313 3084.3 327C3063.4 351.48 3064.16 401.5 3088.04 423.83C3110.08 444.43 3140.99 443 3169 443C3185.14 443 3201.03 443.39 3217 440.71C3268.69 432.06 3289.43 359.73 3251.99 323.04C3229.67 301.17 3197.68 304 3169 304C3156.59 304 3143.3 302.67 3131 304.43Z" fill="#858585"/>
<path d="M3209 304V305H3212L3209 304Z" fill="#C4C4C4"/>
<path d="M1369 305V407V432L1370.6 440.97L1381 442H1407V305H1369Z" fill="#858585"/>
<path d="M1407 305V442H1408V346C1408 334.32 1411.51 315.74 1407 305ZM1427 305V335H1428L1427 305ZM1562 305V335H1563L1562 305ZM1736 305V404H1737V335L1736 305Z" fill="#C4C4C4"/>
<path d="M1737 305V389C1737 404.55 1736.51 420.3 1749.04 431.81C1757.84 439.9 1768.95 439.97 1780 441.42C1807.18 444.99 1836.58 442 1864 442C1864 450.48 1865.18 461.5 1857.9 467.58C1851.31 473.07 1839.97 471 1832 471H1767V501H1845C1858.75 501 1874.09 502.55 1886 494.2C1903.52 481.92 1902 458.93 1902 440V305H1862V411H1804C1796.46 411 1786.28 412.89 1780.1 407.61C1772.41 401.02 1775 388.05 1775 379V305H1737Z" fill="#858585"/>
<path d="M2792 305V306H2795L2792 305Z" fill="#C4C4C4"/>
<path d="M3122 305V306H3125L3122 305ZM3215 305V306H3218L3215 305Z" fill="#C4C4C4"/>
<path d="M1158 306V441H1159V347C1159 335.32 1162.51 316.74 1158 306Z" fill="#FFD8B7"/>
<path d="M2236 315V318H2237L2236 315Z" fill="#C4C4C4"/>
<path d="M2294 327V328H2297L2294 327Z" fill="#C4C4C4"/>
<path d="M2398 328V329H2407L2398 328Z" fill="#C4C4C4"/>
<path d="M2071 357H2114H2143C2151.67 357 2166.12 359.74 2173.96 355.68C2181.06 352 2181.86 340.22 2174.94 335.94C2167.72 331.46 2154.19 334 2146 334C2123.31 334 2076.57 325.75 2071 357Z" fill="white"/>
<path d="M2217 334V337H2218L2217 334ZM2544 334V335H2548L2544 334Z" fill="#C4C4C4"/>
<path d="M2918 334V335H2922L2918 334Z" fill="#C4C4C4"/>
<path d="M2924 334.42C2915 335.62 2906.77 337.17 2900.19 344.09C2887.22 357.71 2887.24 392.1 2902.09 404.47C2916.84 416.75 2942.19 412 2960 412C2967.8 412 2976.29 412.94 2984 411.68C3012.71 406.98 3021.55 361.48 3000.83 342.62C2987.46 330.45 2964.65 334 2948 334C2940.08 334 2931.86 333.38 2924 334.42Z" fill="white"/>
<path d="M2981 334V335H2985L2981 334ZM3136 334V335H3140L3136 334Z" fill="#C4C4C4"/>
<path d="M3142 334.43C3133.44 335.59 3124.61 337.58 3118.53 344.3C3105.62 358.58 3106.35 391.94 3121.04 404.67C3129.49 412 3140.47 412 3151 412C3167.55 412 3185.61 414.04 3202 411.7C3230.96 407.56 3240.81 361.77 3219.7 342.68C3206.04 330.33 3182.9 334 3166 334C3158.09 334 3149.85 333.36 3142 334.43Z" fill="white"/>
<path d="M3199 334V335H3204L3199 334Z" fill="#C4C4C4"/>
<path d="M1428 335V336H1467C1456.73 331.69 1439.17 335 1428 335Z" fill="#FFD8B7"/>
<path d="M1505 335V442H1506V368L1505 335Z" fill="#C4C4C4"/>
<path d="M1506 335V336H1562L1544 335H1506ZM1574 335V336H1613C1602.73 331.69 1585.17 335 1574 335Z" fill="#FFD8B7"/>
<path d="M1613 335V401H1614V356L1613 335Z" fill="#C4C4C4"/>
<path d="M1653 335V336H1709L1691 335H1653Z" fill="#FFD8B7"/>
<path d="M2703 335V336H2775L2752 335H2703Z" fill="#FFD8B7"/>
<path d="M2775 335V336H2779L2775 335Z" fill="#C4C4C4"/>
<path d="M2218 341V351H2219L2218 341Z" fill="#C4C4C4"/>
<path d="M2828 343V442H2829V373L2828 343Z" fill="#C4C4C4"/>
<path d="M1927 349V379H2008V349H1927Z" fill="#858585"/>
<path d="M2008 349V379H1927V380H1986C1991.09 380 2003.27 382.24 2007.4 378.97C2011.57 375.67 2009.92 353.57 2008 349Z" fill="#C4C4C4"/>
<path d="M2478 356V359H2479L2478 356Z" fill="#C4C4C4"/>
<path d="M2029 358V361H2030L2029 358Z" fill="#C4C4C4"/>
<path d="M3050 360V363H3051L3050 360Z" fill="#C4C4C4"/>
<path d="M2283 361V362H2286L2283 361ZM3070 361V365H3071L3070 361Z" fill="#C4C4C4"/>
<path d="M2292 362V363H2398L2366 362H2292Z" fill="#C4C4C4"/>
<path d="M3229 362V365H3230L3229 362ZM3269 362V366H3270L3269 362ZM2477 363V371H2478L2477 363ZM2517 363V368H2518L2517 363ZM2851 363V370H2852L2851 363ZM2891 363V368H2892L2891 363Z" fill="#C4C4C4"/>
<path d="M2028 365V368H2029L2028 365Z" fill="#FFD8B7"/>
<path d="M2028 368V379H2029L2028 368Z" fill="#C4C4C4"/>
<path d="M3011 371V376H3012L3011 371Z" fill="#C4C4C4"/>
<path d="M3051 371V376H3052L3051 371Z" fill="#FFD8B7"/>
</svg>
