<svg width="4031" height="832" viewBox="0 0 4031 832" fill="none" xmlns="http://www.w3.org/2000/svg">
<path d="M0 91.0001C26.315 107.11 53.457 121.87 80 137.6C87.868 142.27 105.305 148.29 109.972 156.21C113.379 162 111 174.41 111 181V242V434V490C111 497.23 109.062 507.78 111.768 514.56C114.167 520.57 121.8 523.41 127 526.42C139.346 533.59 151.692 540.76 164 547.99C213.7 577.18 263.12 607.92 314 635V538C314 530.1 317.63 509.77 312.4 503.61C307.97 498.39 298.84 495.28 293 491.8C277.78 482.73 262.37 473.97 247 465.15C240.88 461.64 226.25 456.29 224.32 448.96C222.13 440.65 224 429.58 224 421V361V169V117C224 109.62 225.57 100.19 223.68 93.0402C222.3 87.8002 215.29 85.1601 211 82.7201C199.29 76.0401 187.6 69.27 176 62.4C161.737 53.94 147.262 45.85 133 37.4C127.398 34.08 119.538 27.3202 113 26.5502C104.63 25.5602 90.087 37.8501 83 42.0101C63.709 53.3401 44.221 64.3502 25 75.8002C16.823 80.6702 7.187 84.7601 0 91.0001Z" fill="#FFA500"/>
<path d="M624 91.9999C651.64 103.91 678.17 123.11 704 138.6C711.76 143.25 728.52 149.08 732.97 157.1C735.98 162.53 734 172.93 734 179V234V435V496C734 502.13 736.19 513.64 732.4 518.79C728.85 523.6 721.03 526.38 716 529.4C703.06 537.16 689.94 544.64 677 552.4C630.67 580.18 582.09 605.26 537 635V385V309C537 298.51 539.56 284.15 536.57 274.09C534.42 266.9 519.13 261.24 513 257.6C492.05 245.18 470.89 233.12 450 220.6C444.02 217.01 432.18 206.83 425 207.86C414.16 209.42 400.36 221.39 391 227C365.82 242.1 339.48 255.8 315 272C337.43 291.49 369.45 304.55 395 319.8C402.78 324.45 419.41 330.21 423.97 338.19C428.78 346.61 425 366.35 425 376V474V832C460.4 816.74 493.63 791.79 527 772.42C597.88 731.29 668.59 689.73 739 647.8C764.57 632.57 790.26 617.51 816 602.58C823.11 598.45 841.21 591.71 844.4 583.9C847.8 575.55 845 560.99 845 552V476V214V127C845 117.16 848.29 100.25 844.4 91.2099C842.55 86.9299 835.77 84.6298 832 82.3998C821.02 75.8898 810 69.4499 799 62.9899C783.98 54.1699 769.06 45.1698 754 36.4198C748.84 33.4298 741.1 26.6599 735 26.4999C726.54 26.2799 713.16 37.9099 706 42.1999C687.41 53.3299 668.59 64.0699 650 75.1999C641.63 80.2099 630.36 84.5199 624 91.9999Z" fill="#858585"/>
<path d="M988 0V811H1015V0H988Z" fill="#FFA500"/>
<path d="M1189.1 301.204H1289.69C1304.33 301.204 1317.03 302.791 1327.77 305.965C1338.51 309.139 1347.42 313.737 1354.5 319.759C1361.58 325.7 1366.83 332.983 1370.25 341.609C1373.75 350.236 1375.5 359.961 1375.5 370.784C1375.5 380.957 1373.79 390.356 1370.37 398.982C1366.96 407.609 1361.71 415.096 1354.63 421.443C1347.63 427.71 1338.76 432.633 1328.02 436.214C1317.27 439.713 1304.58 441.463 1289.93 441.463L1227.8 441.341V492H1189.1V301.204ZM1290.66 407.894C1297.99 407.894 1304.37 407.039 1309.83 405.33C1315.36 403.54 1319.96 401.058 1323.62 397.884C1327.36 394.629 1330.13 390.722 1331.92 386.165C1333.79 381.526 1334.73 376.399 1334.73 370.784C1334.73 359.472 1331.03 350.683 1323.62 344.417C1316.3 338.069 1305.31 334.896 1290.66 334.896H1227.8V407.894H1290.66ZM1406.51 446.59C1406.51 439.673 1408.01 433.366 1411.02 427.669C1414.03 421.972 1418.55 417.09 1424.57 413.021C1430.6 408.87 1438.08 405.696 1447.03 403.499C1456.07 401.22 1466.57 400.081 1478.53 400.081C1487.4 400.081 1496.72 400.732 1506.48 402.034C1516.33 403.336 1526.46 405.33 1536.88 408.016C1536.47 403.458 1535.09 399.267 1532.73 395.442C1530.37 391.536 1527.07 388.2 1522.84 385.433C1518.69 382.584 1513.64 380.387 1507.7 378.841C1501.84 377.295 1495.17 376.521 1487.68 376.521C1483.61 376.521 1479.14 376.766 1474.26 377.254C1469.37 377.742 1464.33 378.475 1459.12 379.451C1453.91 380.428 1448.74 381.648 1443.62 383.113C1438.57 384.578 1433.85 386.328 1429.46 388.362L1418.47 358.699C1423.92 356.746 1429.74 354.956 1435.93 353.328C1442.19 351.701 1448.58 350.317 1455.09 349.178C1461.6 347.957 1468.11 347.021 1474.62 346.37C1481.13 345.719 1487.44 345.394 1493.54 345.394C1520.48 345.394 1540.5 352.27 1553.6 366.023C1566.7 379.777 1573.25 400.854 1573.25 429.256V492H1537.12V478.45C1533.38 480.647 1529.27 482.723 1524.79 484.676C1520.4 486.629 1515.6 488.338 1510.39 489.803C1505.18 491.268 1499.57 492.407 1493.54 493.221C1487.6 494.116 1481.3 494.563 1474.62 494.563C1463.39 494.563 1453.5 493.343 1444.96 490.901C1436.5 488.46 1429.42 485.083 1423.72 480.77C1418.02 476.456 1413.71 471.411 1410.78 465.633C1407.93 459.773 1406.51 453.426 1406.51 446.59ZM1444.59 445.369C1444.59 447.729 1445.2 450.008 1446.42 452.205C1447.64 454.321 1449.6 456.233 1452.28 457.942C1454.97 459.57 1458.39 460.913 1462.54 461.971C1466.77 462.947 1471.86 463.436 1477.8 463.436C1484.14 463.436 1490.29 462.866 1496.23 461.727C1502.17 460.587 1507.7 459.082 1512.83 457.21C1517.96 455.338 1522.6 453.182 1526.75 450.74C1530.9 448.299 1534.36 445.776 1537.12 443.172V436.824C1531.59 435.278 1526.1 433.976 1520.64 432.918C1515.27 431.86 1510.1 431.046 1505.14 430.477C1500.26 429.826 1495.62 429.378 1491.22 429.134C1486.91 428.89 1483.13 428.768 1479.87 428.768C1473.12 428.768 1467.5 429.215 1463.03 430.11C1458.55 431.006 1454.93 432.226 1452.16 433.772C1449.39 435.237 1447.44 436.987 1446.3 439.021C1445.16 441.056 1444.59 443.172 1444.59 445.369ZM1621.11 347.957H1657.24V368.709C1665.21 362.768 1673.64 357.641 1682.51 353.328C1691.38 349.015 1700.21 345.719 1709 343.44L1719.62 376.521C1705.7 377.905 1693.45 381.038 1682.87 385.921C1672.38 390.722 1663.83 397.518 1657.24 406.307V492H1621.11V347.957ZM1739.76 446.59C1739.76 439.673 1741.26 433.366 1744.28 427.669C1747.29 421.972 1751.8 417.09 1757.83 413.021C1763.85 408.87 1771.33 405.696 1780.29 403.499C1789.32 401.22 1799.82 400.081 1811.78 400.081C1820.65 400.081 1829.97 400.732 1839.73 402.034C1849.58 403.336 1859.71 405.33 1870.13 408.016C1869.72 403.458 1868.34 399.267 1865.98 395.442C1863.62 391.536 1860.32 388.2 1856.09 385.433C1851.94 382.584 1846.9 380.387 1840.96 378.841C1835.1 377.295 1828.42 376.521 1820.94 376.521C1816.87 376.521 1812.39 376.766 1807.51 377.254C1802.62 377.742 1797.58 378.475 1792.37 379.451C1787.16 380.428 1782 381.648 1776.87 383.113C1771.82 384.578 1767.1 386.328 1762.71 388.362L1751.72 358.699C1757.17 356.746 1762.99 354.956 1769.18 353.328C1775.44 351.701 1781.83 350.317 1788.34 349.178C1794.85 347.957 1801.36 347.021 1807.87 346.37C1814.38 345.719 1820.69 345.394 1826.79 345.394C1853.73 345.394 1873.75 352.27 1886.85 366.023C1899.96 379.777 1906.51 400.854 1906.51 429.256V492H1870.37V478.45C1866.63 480.647 1862.52 482.723 1858.04 484.676C1853.65 486.629 1848.85 488.338 1843.64 489.803C1838.43 491.268 1832.82 492.407 1826.79 493.221C1820.85 494.116 1814.55 494.563 1807.87 494.563C1796.64 494.563 1786.76 493.343 1778.21 490.901C1769.75 488.46 1762.67 485.083 1756.97 480.77C1751.27 476.456 1746.96 471.411 1744.03 465.633C1741.18 459.773 1739.76 453.426 1739.76 446.59ZM1777.84 445.369C1777.84 447.729 1778.46 450.008 1779.68 452.205C1780.9 454.321 1782.85 456.233 1785.54 457.942C1788.22 459.57 1791.64 460.913 1795.79 461.971C1800.02 462.947 1805.11 463.436 1811.05 463.436C1817.4 463.436 1823.54 462.866 1829.48 461.727C1835.42 460.587 1840.96 459.082 1846.08 457.21C1851.21 455.338 1855.85 453.182 1860 450.74C1864.15 448.299 1867.61 445.776 1870.37 443.172V436.824C1864.84 435.278 1859.35 433.976 1853.89 432.918C1848.52 431.86 1843.36 431.046 1838.39 430.477C1833.51 429.826 1828.87 429.378 1824.48 429.134C1820.16 428.89 1816.38 428.768 1813.12 428.768C1806.37 428.768 1800.75 429.215 1796.28 430.11C1791.8 431.006 1788.18 432.226 1785.41 433.772C1782.65 435.237 1780.69 436.987 1779.55 439.021C1778.41 441.056 1777.84 443.172 1777.84 445.369ZM1976.94 516.414C1981.5 518.042 1986.14 519.384 1990.86 520.442C1995.58 521.582 2000.13 522.477 2004.53 523.128C2009.01 523.86 2013.28 524.349 2017.35 524.593C2021.42 524.918 2025.04 525.081 2028.21 525.081C2037.81 525.081 2046.16 523.901 2053.24 521.541C2060.4 519.262 2066.34 516.17 2071.06 512.264C2075.86 508.357 2079.44 503.8 2081.8 498.592C2084.16 493.465 2085.34 488.012 2085.34 482.234V476.009C2082.25 478.125 2078.63 480.159 2074.48 482.112C2070.33 484.065 2065.77 485.774 2060.8 487.239C2055.84 488.704 2050.55 489.884 2044.93 490.779C2039.4 491.674 2033.66 492.122 2027.72 492.122C2015.92 492.122 2005.02 490.372 1995.01 486.873C1985 483.292 1976.33 478.328 1969.01 471.98C1961.68 465.551 1955.95 457.861 1951.79 448.909C1947.73 439.957 1945.69 430.029 1945.69 419.124C1945.69 407.975 1947.85 397.884 1952.16 388.851C1956.47 379.736 1962.42 371.964 1969.98 365.535C1977.63 359.106 1986.67 354.142 1997.08 350.643C2007.5 347.143 2018.81 345.394 2031.02 345.394C2036.23 345.394 2041.39 345.719 2046.52 346.37C2051.65 347.021 2056.53 347.916 2061.17 349.056C2065.89 350.195 2070.28 351.578 2074.35 353.206C2078.5 354.752 2082.17 356.461 2085.34 358.333V347.957H2121.47V475.521C2121.47 488.623 2119.48 500.219 2115.49 510.311C2111.5 520.402 2105.64 528.865 2097.91 535.701C2090.26 542.618 2080.74 547.827 2069.35 551.326C2057.96 554.907 2044.89 556.697 2030.16 556.697C2024.87 556.697 2019.38 556.453 2013.68 555.965C2007.99 555.558 2002.25 554.907 1996.47 554.012C1990.78 553.198 1985.12 552.181 1979.5 550.96C1973.97 549.821 1968.64 548.478 1963.51 546.932L1976.94 516.414ZM1983.66 418.758C1983.66 424.536 1984.79 429.988 1987.07 435.115C1989.43 440.161 1992.77 444.596 1997.08 448.421C2001.4 452.164 2006.6 455.135 2012.71 457.332C2018.81 459.448 2025.69 460.506 2033.34 460.506C2038.3 460.506 2043.23 460.058 2048.11 459.163C2053.07 458.187 2057.79 456.844 2062.27 455.135C2066.83 453.426 2071.06 451.351 2074.96 448.909C2078.95 446.468 2082.41 443.742 2085.34 440.73V393.245C2081.68 390.315 2077.81 387.833 2073.74 385.799C2069.67 383.764 2065.52 382.096 2061.29 380.794C2057.06 379.492 2052.79 378.556 2048.47 377.986C2044.16 377.335 2039.97 377.01 2035.9 377.01C2027.6 377.01 2020.19 378.108 2013.68 380.306C2007.26 382.503 2001.8 385.514 1997.33 389.339C1992.93 393.082 1989.56 397.477 1987.2 402.522C1984.84 407.568 1983.66 412.98 1983.66 418.758ZM2153.94 419.979C2153.94 409.643 2156.02 399.959 2160.17 390.926C2164.4 381.893 2170.38 373.999 2178.11 367.244C2185.93 360.49 2195.33 355.159 2206.31 351.253C2217.38 347.347 2229.79 345.394 2243.54 345.394C2257.3 345.394 2269.67 347.347 2280.65 351.253C2291.72 355.159 2301.12 360.49 2308.85 367.244C2316.66 373.999 2322.64 381.893 2326.79 390.926C2331.03 399.959 2333.14 409.643 2333.14 419.979C2333.14 430.314 2331.03 439.998 2326.79 449.031C2322.64 458.064 2316.66 465.958 2308.85 472.713C2301.12 479.467 2291.72 484.798 2280.65 488.704C2269.67 492.61 2257.3 494.563 2243.54 494.563C2229.79 494.563 2217.38 492.61 2206.31 488.704C2195.33 484.798 2185.93 479.467 2178.11 472.713C2170.38 465.958 2164.4 458.064 2160.17 449.031C2156.02 439.998 2153.94 430.314 2153.94 419.979ZM2191.91 419.979C2191.91 425.757 2193.05 431.25 2195.33 436.458C2197.69 441.585 2201.06 446.142 2205.46 450.13C2209.93 454.036 2215.34 457.169 2221.69 459.529C2228.12 461.808 2235.4 462.947 2243.54 462.947C2251.68 462.947 2258.92 461.808 2265.27 459.529C2271.7 457.169 2277.11 454.036 2281.51 450.13C2285.98 446.142 2289.36 441.585 2291.64 436.458C2294 431.25 2295.18 425.757 2295.18 419.979C2295.18 414.201 2294 408.707 2291.64 403.499C2289.36 398.291 2285.98 393.733 2281.51 389.827C2277.11 385.84 2271.7 382.706 2265.27 380.428C2258.92 378.068 2251.68 376.888 2243.54 376.888C2235.4 376.888 2228.12 378.068 2221.69 380.428C2215.34 382.706 2209.93 385.84 2205.46 389.827C2201.06 393.733 2197.69 398.291 2195.33 403.499C2193.05 408.707 2191.91 414.201 2191.91 419.979ZM2369.64 347.957H2405.77V360.164C2415.38 354.712 2424.53 350.887 2433.24 348.689C2442.03 346.492 2450.61 345.394 2459 345.394C2469.98 345.394 2480.16 347.021 2489.51 350.276C2498.87 353.45 2506.97 358.211 2513.81 364.559C2520.64 370.906 2525.97 378.841 2529.8 388.362C2533.7 397.802 2535.66 408.748 2535.66 421.199V492H2499.65V427.059C2499.65 419.165 2498.51 412.125 2496.23 405.94C2494.03 399.674 2490.82 394.425 2486.58 390.193C2482.43 385.88 2477.35 382.625 2471.33 380.428C2465.39 378.149 2458.71 377.01 2451.31 377.01C2447.4 377.01 2443.37 377.417 2439.22 378.23C2435.15 379.044 2431.12 380.224 2427.14 381.771C2423.23 383.235 2419.45 385.107 2415.78 387.386C2412.12 389.583 2408.79 392.106 2405.77 394.954V492H2369.64V347.957ZM2574.23 381.404H2686.17V408.504H2574.23V381.404ZM2948.01 435.237C2954.93 439.144 2961.93 442.684 2969.01 445.857C2976.17 448.95 2983.57 451.595 2991.22 453.792C2998.87 455.908 3006.89 457.535 3015.27 458.675C3023.74 459.814 3032.73 460.384 3042.25 460.384C3053.72 460.384 3063.49 459.651 3071.55 458.187C3079.6 456.64 3086.15 454.565 3091.2 451.961C3096.33 449.275 3100.03 446.102 3102.31 442.439C3104.67 438.777 3105.85 434.79 3105.85 430.477C3105.85 423.559 3102.96 418.107 3097.18 414.119C3091.4 410.05 3082.49 408.016 3070.45 408.016C3065.16 408.016 3059.58 408.382 3053.72 409.114C3047.86 409.765 3041.92 410.498 3035.9 411.312C3029.96 412.125 3024.06 412.898 3018.2 413.631C3012.42 414.282 3006.97 414.607 3001.84 414.607C2993.3 414.607 2985.08 413.509 2977.19 411.312C2969.37 409.114 2962.42 405.818 2956.31 401.424C2950.29 397.029 2945.49 391.536 2941.91 384.944C2938.33 378.353 2936.54 370.662 2936.54 361.873C2936.54 356.665 2937.23 351.497 2938.61 346.37C2940.08 341.243 2942.35 336.36 2945.45 331.722C2948.62 327.002 2952.69 322.648 2957.65 318.66C2962.62 314.591 2968.6 311.092 2975.6 308.162C2982.68 305.232 2990.82 302.954 3000.01 301.326C3009.29 299.617 3019.83 298.763 3031.63 298.763C3040.17 298.763 3048.76 299.251 3057.39 300.228C3066.01 301.123 3074.39 302.425 3082.53 304.134C3090.75 305.843 3098.65 307.918 3106.21 310.359C3113.78 312.719 3120.82 315.364 3127.33 318.294L3110.36 349.544C3104.99 347.184 3099.22 345.027 3093.03 343.074C3086.85 341.04 3080.38 339.29 3073.62 337.825C3066.87 336.36 3059.87 335.221 3052.62 334.407C3045.46 333.512 3038.14 333.064 3030.65 333.064C3019.99 333.064 3011.2 333.838 3004.29 335.384C2997.45 336.93 2992 338.924 2987.93 341.365C2983.86 343.725 2981.01 346.411 2979.38 349.422C2977.84 352.352 2977.06 355.281 2977.06 358.211C2977.06 363.908 2979.63 368.587 2984.75 372.249C2989.88 375.83 2997.69 377.62 3008.19 377.62C3012.42 377.62 3017.27 377.335 3022.72 376.766C3028.25 376.115 3034.03 375.423 3040.05 374.69C3046.16 373.958 3052.34 373.307 3058.61 372.737C3064.95 372.086 3071.1 371.761 3077.04 371.761C3088.27 371.761 3098.2 373.022 3106.82 375.545C3115.53 378.068 3122.82 381.689 3128.67 386.409C3134.53 391.048 3138.97 396.704 3141.98 403.377C3144.99 409.969 3146.5 417.374 3146.5 425.594C3146.5 436.58 3143.93 446.386 3138.81 455.013C3133.76 463.558 3126.52 470.8 3117.08 476.741C3107.72 482.601 3096.41 487.076 3083.14 490.169C3069.88 493.18 3055.11 494.686 3038.83 494.686C3028.09 494.686 3017.59 493.994 3007.34 492.61C2997.08 491.308 2987.24 489.437 2977.8 486.995C2968.44 484.472 2959.49 481.502 2950.94 478.084C2942.48 474.585 2934.62 470.76 2927.38 466.609L2948.01 435.237ZM3175.92 420.345C3175.92 409.765 3177.83 399.918 3181.65 390.804C3185.56 381.608 3191.22 373.673 3198.62 367C3206.11 360.245 3215.22 354.956 3225.96 351.131C3236.79 347.306 3249.12 345.394 3262.95 345.394C3268.97 345.394 3275.04 345.76 3281.14 346.492C3287.24 347.225 3293.1 348.283 3298.72 349.666C3304.42 350.968 3309.75 352.555 3314.71 354.427C3319.67 356.217 3323.99 358.211 3327.65 360.408L3310.93 387.63C3303.03 383.968 3295.54 381.282 3288.46 379.573C3281.47 377.864 3274.35 377.01 3267.1 377.01C3258.8 377.01 3251.36 378.108 3244.76 380.306C3238.17 382.422 3232.56 385.433 3227.92 389.339C3223.36 393.164 3219.86 397.721 3217.42 403.011C3215.06 408.219 3213.88 413.916 3213.88 420.101C3213.88 426.285 3215.14 432.023 3217.66 437.312C3220.27 442.521 3223.89 447.037 3228.53 450.862C3233.25 454.606 3238.9 457.576 3245.5 459.773C3252.17 461.889 3259.57 462.947 3267.71 462.947C3276.66 462.947 3285.09 461.686 3292.98 459.163C3300.96 456.64 3308.36 453.263 3315.2 449.031L3331.92 476.253C3327.61 478.857 3322.93 481.299 3317.88 483.577C3312.84 485.774 3307.43 487.687 3301.65 489.314C3295.95 490.942 3289.93 492.203 3283.58 493.099C3277.32 494.075 3270.81 494.563 3264.05 494.563C3250.3 494.563 3237.97 492.692 3227.06 488.948C3216.16 485.205 3206.92 480.037 3199.35 473.445C3191.79 466.772 3185.97 458.919 3181.9 449.886C3177.91 440.853 3175.92 431.006 3175.92 420.345ZM3370.86 289.607H3407V358.943C3414.56 354.793 3422.99 351.497 3432.26 349.056C3441.62 346.614 3451.43 345.394 3461.68 345.394C3473.56 345.394 3484.22 347.143 3493.67 350.643C3503.19 354.142 3511.24 359.188 3517.83 365.779C3524.43 372.29 3529.47 380.224 3532.97 389.583C3536.55 398.942 3538.34 409.48 3538.34 421.199V492H3502.33V422.664C3502.33 415.828 3501.23 409.603 3499.04 403.987C3496.84 398.291 3493.62 393.408 3489.39 389.339C3485.16 385.27 3479.99 382.137 3473.89 379.939C3467.87 377.661 3461.03 376.521 3453.38 376.521C3444.19 376.521 3435.64 377.986 3427.75 380.916C3419.85 383.846 3412.94 387.549 3407 392.024V492H3370.86V289.607ZM3570.2 419.979C3570.2 409.643 3572.28 399.959 3576.43 390.926C3580.66 381.893 3586.64 373.999 3594.37 367.244C3602.19 360.49 3611.58 355.159 3622.57 351.253C3633.64 347.347 3646.05 345.394 3659.8 345.394C3673.56 345.394 3685.93 347.347 3696.91 351.253C3707.98 355.159 3717.38 360.49 3725.11 367.244C3732.92 373.999 3738.9 381.893 3743.05 390.926C3747.29 399.959 3749.4 409.643 3749.4 419.979C3749.4 430.314 3747.29 439.998 3743.05 449.031C3738.9 458.064 3732.92 465.958 3725.11 472.713C3717.38 479.467 3707.98 484.798 3696.91 488.704C3685.93 492.61 3673.56 494.563 3659.8 494.563C3646.05 494.563 3633.64 492.61 3622.57 488.704C3611.58 484.798 3602.19 479.467 3594.37 472.713C3586.64 465.958 3580.66 458.064 3576.43 449.031C3572.28 439.998 3570.2 430.314 3570.2 419.979ZM3608.17 419.979C3608.17 425.757 3609.31 431.25 3611.58 436.458C3613.94 441.585 3617.32 446.142 3621.72 450.13C3626.19 454.036 3631.6 457.169 3637.95 459.529C3644.38 461.808 3651.66 462.947 3659.8 462.947C3667.94 462.947 3675.18 461.808 3681.53 459.529C3687.96 457.169 3693.37 454.036 3697.77 450.13C3702.24 446.142 3705.62 441.585 3707.9 436.458C3710.26 431.25 3711.44 425.757 3711.44 419.979C3711.44 414.201 3710.26 408.707 3707.9 403.499C3705.62 398.291 3702.24 393.733 3697.77 389.827C3693.37 385.84 3687.96 382.706 3681.53 380.428C3675.18 378.068 3667.94 376.888 3659.8 376.888C3651.66 376.888 3644.38 378.068 3637.95 380.428C3631.6 382.706 3626.19 385.84 3621.72 389.827C3617.32 393.733 3613.94 398.291 3611.58 403.499C3609.31 408.707 3608.17 414.201 3608.17 419.979ZM3777.23 419.979C3777.23 409.643 3779.31 399.959 3783.46 390.926C3787.69 381.893 3793.67 373.999 3801.4 367.244C3809.22 360.49 3818.62 355.159 3829.6 351.253C3840.67 347.347 3853.08 345.394 3866.83 345.394C3880.59 345.394 3892.96 347.347 3903.94 351.253C3915.01 355.159 3924.41 360.49 3932.14 367.244C3939.95 373.999 3945.94 381.893 3950.09 390.926C3954.32 399.959 3956.43 409.643 3956.43 419.979C3956.43 430.314 3954.32 439.998 3950.09 449.031C3945.94 458.064 3939.95 465.958 3932.14 472.713C3924.41 479.467 3915.01 484.798 3903.94 488.704C3892.96 492.61 3880.59 494.563 3866.83 494.563C3853.08 494.563 3840.67 492.61 3829.6 488.704C3818.62 484.798 3809.22 479.467 3801.4 472.713C3793.67 465.958 3787.69 458.064 3783.46 449.031C3779.31 439.998 3777.23 430.314 3777.23 419.979ZM3815.2 419.979C3815.2 425.757 3816.34 431.25 3818.62 436.458C3820.98 441.585 3824.35 446.142 3828.75 450.13C3833.22 454.036 3838.64 457.169 3844.98 459.529C3851.41 461.808 3858.7 462.947 3866.83 462.947C3874.97 462.947 3882.21 461.808 3888.56 459.529C3894.99 457.169 3900.4 454.036 3904.8 450.13C3909.27 446.142 3912.65 441.585 3914.93 436.458C3917.29 431.25 3918.47 425.757 3918.47 419.979C3918.47 414.201 3917.29 408.707 3914.93 403.499C3912.65 398.291 3909.27 393.733 3904.8 389.827C3900.4 385.84 3894.99 382.706 3888.56 380.428C3882.21 378.068 3874.97 376.888 3866.83 376.888C3858.7 376.888 3851.41 378.068 3844.98 380.428C3838.64 382.706 3833.22 385.84 3828.75 389.827C3824.35 393.733 3820.98 398.291 3818.62 403.499C3816.34 408.707 3815.2 414.201 3815.2 419.979ZM3993.91 289.485H4030.04V492H3993.91V289.485Z" fill="#858585"/>
<path d="M2718.76 419.49C2718.76 409.725 2720.76 400.407 2724.74 391.536C2728.73 382.584 2734.47 374.69 2741.96 367.854C2749.44 361.019 2758.6 355.566 2769.42 351.497C2780.33 347.428 2792.7 345.394 2806.53 345.394C2820.28 345.394 2832.65 347.469 2843.64 351.619C2854.71 355.688 2864.07 361.303 2871.72 368.465C2879.45 375.626 2885.35 384.049 2889.42 393.733C2893.57 403.418 2895.64 413.794 2895.64 424.861C2895.64 426.245 2895.6 427.75 2895.52 429.378C2895.52 430.924 2895.44 432.348 2895.28 433.65H2759.05C2760.59 437.964 2763.07 441.91 2766.49 445.491C2769.99 449.072 2774.35 452.164 2779.55 454.769C2784.76 457.373 2790.78 459.407 2797.62 460.872C2804.46 462.256 2812.02 462.947 2820.33 462.947C2828.63 462.947 2836.89 462.093 2845.11 460.384C2853.32 458.593 2861.18 456.355 2868.67 453.67L2880.87 481.258C2876.15 483.455 2871.35 485.408 2866.47 487.117C2861.67 488.745 2856.62 490.128 2851.33 491.268C2846.12 492.326 2840.63 493.139 2834.85 493.709C2829.15 494.279 2823.13 494.563 2816.79 494.563C2800.59 494.563 2786.39 492.61 2774.18 488.704C2761.98 484.798 2751.76 479.467 2743.54 472.713C2735.32 465.958 2729.14 458.024 2724.99 448.909C2720.84 439.795 2718.76 429.988 2718.76 419.49ZM2857.31 405.452C2856.01 401.465 2853.98 397.762 2851.21 394.344C2848.52 390.844 2845.15 387.833 2841.08 385.311C2837.01 382.706 2832.29 380.672 2826.92 379.207C2821.55 377.742 2815.65 377.01 2809.22 377.01C2802.38 377.01 2796.16 377.783 2790.54 379.329C2784.92 380.875 2780 382.951 2775.77 385.555C2771.54 388.159 2768 391.17 2765.15 394.588C2762.38 398.006 2760.35 401.627 2759.05 405.452H2857.31Z" fill="#FFA500"/>
</svg>
